<svg id="visual" viewBox="0 0 960 540" width="960" height="540" xmlns="http://www.w3.org/2000/svg" xmlns:xlink="http://www.w3.org/1999/xlink" version="1.1"><path d="M0 376L22.8 379.8C45.7 383.7 91.3 391.3 137 382.8C182.7 374.3 228.3 349.7 274 349.2C319.7 348.7 365.3 372.3 411.2 379.7C457 387 503 378 548.8 366.5C594.7 355 640.3 341 686 333.2C731.7 325.3 777.3 323.7 823 323C868.7 322.3 914.3 322.7 937.2 322.8L960 323L960 541L937.2 541C914.3 541 868.7 541 823 541C777.3 541 731.7 541 686 541C640.3 541 594.7 541 548.8 541C503 541 457 541 411.2 541C365.3 541 319.7 541 274 541C228.3 541 182.7 541 137 541C91.3 541 45.7 541 22.8 541L0 541Z" fill="#85d0cb"></path><path d="M0 365L22.8 366C45.7 367 91.3 369 137 373.2C182.7 377.3 228.3 383.7 274 388C319.7 392.3 365.3 394.7 411.2 394C457 393.3 503 389.7 548.8 393.5C594.7 397.3 640.3 408.7 686 404.8C731.7 401 777.3 382 823 379.7C868.7 377.3 914.3 391.7 937.2 398.8L960 406L960 541L937.2 541C914.3 541 868.7 541 823 541C777.3 541 731.7 541 686 541C640.3 541 594.7 541 548.8 541C503 541 457 541 411.2 541C365.3 541 319.7 541 274 541C228.3 541 182.7 541 137 541C91.3 541 45.7 541 22.8 541L0 541Z" fill="#75c9c2"></path><path d="M0 425L22.8 419.8C45.7 414.7 91.3 404.3 137 403.3C182.7 402.3 228.3 410.7 274 417.8C319.7 425 365.3 431 411.2 429C457 427 503 417 548.8 411.7C594.7 406.3 640.3 405.7 686 410.5C731.7 415.3 777.3 425.7 823 427.7C868.7 429.7 914.3 423.3 937.2 420.2L960 417L960 541L937.2 541C914.3 541 868.7 541 823 541C777.3 541 731.7 541 686 541C640.3 541 594.7 541 548.8 541C503 541 457 541 411.2 541C365.3 541 319.7 541 274 541C228.3 541 182.7 541 137 541C91.3 541 45.7 541 22.8 541L0 541Z" fill="#65c2b8"></path><path d="M0 443L22.8 449C45.7 455 91.3 467 137 466.7C182.7 466.3 228.3 453.7 274 453.8C319.7 454 365.3 467 411.2 468.5C457 470 503 460 548.8 461.3C594.7 462.7 640.3 475.3 686 474.3C731.7 473.3 777.3 458.7 823 450.2C868.7 441.7 914.3 439.3 937.2 438.2L960 437L960 541L937.2 541C914.3 541 868.7 541 823 541C777.3 541 731.7 541 686 541C640.3 541 594.7 541 548.8 541C503 541 457 541 411.2 541C365.3 541 319.7 541 274 541C228.3 541 182.7 541 137 541C91.3 541 45.7 541 22.8 541L0 541Z" fill="#54bbae"></path><path d="M0 484L22.8 487.7C45.7 491.3 91.3 498.7 137 502.3C182.7 506 228.3 506 274 506.8C319.7 507.7 365.3 509.3 411.2 504C457 498.7 503 486.3 548.8 482C594.7 477.7 640.3 481.3 686 486.2C731.7 491 777.3 497 823 501.3C868.7 505.7 914.3 508.3 937.2 509.7L960 511L960 541L937.2 541C914.3 541 868.7 541 823 541C777.3 541 731.7 541 686 541C640.3 541 594.7 541 548.8 541C503 541 457 541 411.2 541C365.3 541 319.7 541 274 541C228.3 541 182.7 541 137 541C91.3 541 45.7 541 22.8 541L0 541Z" fill="#41b3a3"></path></svg>